<svg aria-hidden="true" style="position: absolute; width: 0; height: 0; overflow: hidden;" version="1.1" xmlns="http://www.w3.org/2000/svg" xmlns:xlink="http://www.w3.org/1999/xlink">
<defs>

<symbol id="icon-facebook" viewBox="0 0 32 32">
<path fill="#f4f4fd" style="fill: var(--color1, #f4f4fd)" d="M21.329 5.313h2.921v-5.088c-0.504-0.069-2.237-0.225-4.256-0.225-4.212 0-7.097 2.649-7.097 7.519v4.481h-4.648v5.688h4.648v14.312h5.699v-14.311h4.46l0.708-5.688h-5.169v-3.919c0.001-1.644 0.444-2.769 2.735-2.769z"></path>
</symbol>
<symbol id="icon-instagram" viewBox="0 0 32 32">
<path fill="#f4f4fd" style="fill: var(--color1, #f4f4fd)" d="M31.969 9.408c-0.075-1.7-0.35-2.869-0.744-3.882-0.406-1.075-1.031-2.038-1.85-2.838-0.8-0.813-1.769-1.444-2.832-1.844-1.019-0.394-2.182-0.669-3.882-0.744-1.713-0.081-2.257-0.1-6.601-0.1s-4.888 0.019-6.595 0.094c-1.7 0.075-2.869 0.35-3.882 0.744-1.075 0.406-2.038 1.031-2.838 1.85-0.813 0.8-1.444 1.769-1.844 2.832-0.394 1.019-0.669 2.182-0.744 3.882-0.081 1.713-0.1 2.257-0.1 6.601s0.019 4.888 0.094 6.595c0.075 1.7 0.35 2.869 0.744 3.882 0.406 1.075 1.038 2.038 1.85 2.838 0.8 0.813 1.769 1.444 2.832 1.844 1.019 0.394 2.182 0.669 3.882 0.744 1.706 0.075 2.25 0.094 6.595 0.094s4.888-0.018 6.595-0.094c1.7-0.075 2.869-0.35 3.882-0.744 2.151-0.831 3.851-2.532 4.682-4.682 0.394-1.019 0.669-2.182 0.744-3.882 0.075-1.707 0.094-2.251 0.094-6.595s-0.006-4.888-0.081-6.595zM29.087 22.473c-0.069 1.563-0.331 2.407-0.55 2.969-0.538 1.394-1.644 2.501-3.038 3.038-0.563 0.219-1.413 0.481-2.969 0.55-1.688 0.075-2.194 0.094-6.464 0.094s-4.782-0.018-6.464-0.094c-1.563-0.069-2.407-0.331-2.969-0.55-0.694-0.256-1.325-0.663-1.838-1.194-0.531-0.519-0.938-1.144-1.194-1.838-0.219-0.563-0.481-1.413-0.55-2.969-0.075-1.688-0.094-2.194-0.094-6.464s0.019-4.782 0.094-6.464c0.069-1.563 0.331-2.407 0.55-2.969 0.256-0.694 0.663-1.325 1.2-1.838 0.519-0.531 1.144-0.938 1.838-1.194 0.563-0.219 1.413-0.481 2.969-0.55 1.688-0.075 2.194-0.094 6.464-0.094 4.276 0 4.782 0.019 6.464 0.094 1.563 0.069 2.407 0.331 2.969 0.55 0.694 0.256 1.325 0.662 1.838 1.194 0.531 0.519 0.938 1.144 1.194 1.838 0.219 0.563 0.481 1.413 0.55 2.969 0.075 1.688 0.094 2.194 0.094 6.464s-0.019 4.77-0.094 6.457z"></path>
<path fill="#f4f4fd" style="fill: var(--color1, #f4f4fd)" d="M16.059 7.782c-4.538 0-8.22 3.682-8.22 8.22s3.682 8.22 8.22 8.22c4.538 0 8.22-3.682 8.22-8.22s-3.682-8.22-8.22-8.22zM16.059 21.335c-2.944 0-5.332-2.388-5.332-5.332s2.388-5.332 5.332-5.332c2.944 0 5.332 2.388 5.332 5.332s-2.388 5.332-5.332 5.332z"></path>
<path fill="#f4f4fd" style="fill: var(--color1, #f4f4fd)" d="M26.524 7.457c0 1.060-0.859 1.919-1.919 1.919s-1.919-0.859-1.919-1.919c0-1.060 0.859-1.919 1.919-1.919s1.919 0.859 1.919 1.919z"></path>
</symbol>
<symbol id="icon-left" viewBox="0 0 32 32">
<path d="M23.895 2.007c-0 0.552-0.225 1.052-0.587 1.413l-10.229 10.229c-0.603 0.603-0.977 1.437-0.977 2.357s0.373 1.754 0.977 2.357l10.216 10.216c0.347 0.359 0.561 0.849 0.561 1.389 0 1.105-0.895 2-2 2-0.54 0-1.030-0.214-1.39-0.562l0.001 0.001-10.216-10.208c-1.325-1.328-2.145-3.161-2.145-5.186s0.82-3.858 2.145-5.186l10.229-10.236c0.362-0.362 0.862-0.586 1.415-0.586 1.105 0 2 0.895 2 2 0 0 0 0.001 0 0.001v-0z"></path>
</symbol>
<symbol id="icon-right" viewBox="0 0 32 32">
<path d="M8.105 30c0.001-0.552 0.225-1.052 0.587-1.413l10.229-10.229c0.603-0.603 0.977-1.437 0.977-2.357s-0.373-1.754-0.977-2.357l-10.216-10.223c-0.347-0.359-0.561-0.849-0.561-1.389 0-1.105 0.895-2 2-2 0.54 0 1.030 0.214 1.39 0.562l-0.001-0.001 10.216 10.215c1.325 1.328 2.145 3.161 2.145 5.186s-0.82 3.858-2.145 5.186l-10.229 10.229c-0.362 0.362-0.862 0.586-1.415 0.586-1.103 0-1.997-0.892-2-1.994v-0z"></path>
</symbol>
<svg class="icon-three"><use xlink:href="#icon-reorder_three_icon_233999"></use></svg>
<symbol id="vector-25" viewBox="0 0 32 32">
<path d="M22.789 0h-13.579c-5.079 0-9.211 4.116-9.211 9.175v13.65c0 5.059 4.132 9.175 9.211 9.175h13.579c5.079 0 9.211-4.116 9.211-9.175v-13.65c0-5.059-4.132-9.175-9.211-9.175zM28.952 22.825c0 3.385-2.765 6.139-6.162 6.139h-13.579c-3.398 0-6.162-2.754-6.162-6.139v-13.65c0-3.385 2.765-6.139 6.162-6.139h13.579c3.398 0 6.162 2.754 6.162 6.139v13.65zM16.025 7.709c-4.605 0-8.353 3.693-8.353 8.232s3.747 8.232 8.353 8.232c4.605 0 8.353-3.693 8.353-8.232s-3.748-8.232-8.353-8.232zM16.025 21.143c-2.928 0-5.31-2.334-5.31-5.201s2.382-5.201 5.31-5.201c2.928 0 5.31 2.333 5.31 5.201s-2.382 5.201-5.31 5.201zM26.493 7.373c0 1.081-0.88 1.958-1.965 1.958s-1.965-0.877-1.965-1.958c0-1.081 0.88-1.958 1.965-1.958s1.965 0.877 1.965 1.958z"></path>
</symbol>
<symbol id="facebook-1" viewBox="0 0 32 32">
<path d="M16 32c-8.837 0-16-7.163-16-16s7.163-16 16-16c8.837 0 16 7.163 16 16s-7.163 16-16 16zM17.131 7.365c-0.923 0.026-1.896 0.248-2.584 0.901-0.568 0.525-0.854 1.29-0.918 2.054-0.020 0.547-0.017 1.095-0.014 1.643 0.002 0.411 0.004 0.822-0.003 1.232-0.253 0.002-0.506 0.001-0.759 0.001-0.338-0.001-0.676-0.001-1.013 0.004 0 0.327 0 0.655 0.001 0.983 0.001 0.657 0.002 1.315-0.001 1.973 0.337 0.005 0.675 0.004 1.013 0.004 0.253-0.001 0.507-0.001 0.759 0.001 0.006 1.304 0.005 2.608 0.004 3.912-0.001 1.63-0.003 3.26 0.009 4.89 0.693-0.005 1.385-0.004 2.077-0.003 0.519 0 1.038 0.001 1.558-0.001 0.004-1.467 0.003-2.933 0.002-4.399s-0.002-2.932 0.002-4.399c0.35-0.002 0.699-0.001 1.049-0.001 0.466 0.001 0.932 0.001 1.398-0.004 0.145-0.982 0.269-1.973 0.337-2.968-0.461-0.002-0.922-0.002-1.384-0.002s-0.922 0-1.384-0.002c0-0.172-0-0.344-0.001-0.516-0.001-0.516-0.002-1.031 0.005-1.547 0.073-0.397 0.482-0.7 0.88-0.675h1.887c0.004-1.029 0.004-2.054 0-3.083-0.243 0-0.487-0-0.73-0.001-0.73-0.001-1.46-0.002-2.191 0.005z"></path>
</symbol>

<symbol id="chrest" viewBox="0 0 32 32">
<path d="M32 3.223l-3.223-3.223-12.777 12.777-12.777-12.777-3.223 3.223 12.777 12.777-12.777 12.777 3.223 3.223 12.777-12.777 12.777 12.777 3.223-3.223-12.777-12.777 12.777-12.777z"></path>
</symbol>

<symbol id="gmail" viewBox="0 0 32 32">
<path d="M16 16c4.42 0 8-3.58 8-8s-3.58-8-8-8c-4.42 0-8 3.58-8 8s3.58 8 8 8zM16 20c-5.34 0-16 2.68-16 8v2c0 1.1 0.9 2 2 2h28c1.1 0 2-0.9 2-2v-2c0-5.32-10.66-8-16-8z"></path>
</symbol>
<symbol id="icon-icon-send" viewBox="0 0 32 32">
<path fill="#fff" style="fill: var(--color1, #fff)" d="M32 0l-32 18 10.227 3.788 15.773-14.788-11.998 16.186 0.010 0.004-0.012-0.004v8.814l5.735-6.691 7.265 2.691 5-28z"></path>
</symbol>
<symbol id="icon-menu" viewBox="0 0 32 32">
<path d="M6.4 11.733v-2.133h19.2v2.133h-19.2zM6.4 17.067h19.2v-2.133h-19.2v2.133zM6.4 22.4h19.2v-2.133h-19.2v2.133z"></path>
</symbol>
<symbol id="vector-22" viewBox="0 0 47 32">
<path stroke-linejoin="round" stroke-linecap="round" stroke-miterlimit="4" stroke-width="4.3636" d="M1.96 29.154h42.965M1.96 15.615h42.965M1.96 2.077h42.965"></path>
</symbol>
<symbol id="menu-hamburger" viewBox="0 0 47 32">
<path stroke-linejoin="round" stroke-linecap="round" stroke-miterlimit="4" stroke-width="4.3636" d="M1.96 29.154h42.965M1.96 15.615h42.965M1.96 2.077h42.965"></path>
</symbol>
<symbol id="imenu-hamburger" viewBox="0 0 47 32">
<path stroke-linejoin="round" stroke-linecap="round" stroke-miterlimit="4" stroke-width="4.3636" d="M1.96 29.154h42.965M1.96 15.615h42.965M1.96 2.077h42.965"></path>
</symbol>
<symbol id="p" viewBox="0 0 47 32">
<path stroke-linejoin="round" stroke-linecap="round" stroke-miterlimit="4" stroke-width="4.3636" d="M1.96 29.154h42.965M1.96 15.615h42.965M1.96 2.077h42.965"></path>
</symbol>
</defs>
</svg>
